<svg xmlns="http://www.w3.org/2000/svg" xmlns:xlink="http://www.w3.org/1999/xlink" width="48" zoomAndPan="magnify" viewBox="0 0 36 36.000001" height="48" preserveAspectRatio="xMidYMid meet" version="1.0"><defs><clipPath id="e0dfa4b6e6"><path d="M 0.488281 0 L 35.511719 0 L 35.511719 35.027344 L 0.488281 35.027344 Z M 0.488281 0 " clip-rule="nonzero"/></clipPath><clipPath id="d3a728a61f"><path d="M 9.96875 19.089844 L 14.785156 19.089844 L 14.785156 22.738281 L 9.96875 22.738281 Z M 9.96875 19.089844 " clip-rule="nonzero"/></clipPath><clipPath id="574635917b"><path d="M 4.714844 14 L 14 14 L 14 26.972656 L 4.714844 26.972656 Z M 4.714844 14 " clip-rule="nonzero"/></clipPath><clipPath id="7900486e3d"><path d="M 22 8 L 30.988281 8 L 30.988281 21 L 22 21 Z M 22 8 " clip-rule="nonzero"/></clipPath><clipPath id="f869fc3fbf"><path d="M 4.714844 8 L 30.988281 8 L 30.988281 26.972656 L 4.714844 26.972656 Z M 4.714844 8 " clip-rule="nonzero"/></clipPath></defs><g clip-path="url(#e0dfa4b6e6)"><path fill="#ffffff" d="M 0.488281 0 L 35.511719 0 L 35.511719 35.027344 L 0.488281 35.027344 Z M 0.488281 0 " fill-opacity="1" fill-rule="nonzero"/><path fill="#ffffff" d="M 0.488281 0 L 35.511719 0 L 35.511719 35.027344 L 0.488281 35.027344 Z M 0.488281 0 " fill-opacity="1" fill-rule="nonzero"/></g><g clip-path="url(#d3a728a61f)"><path fill="#c30000" d="M 9.96875 19.089844 L 14.789062 19.089844 L 14.789062 22.738281 L 9.96875 22.738281 Z M 9.96875 19.089844 " fill-opacity="1" fill-rule="nonzero"/></g><g clip-path="url(#574635917b)"><path fill="#b61c1c" d="M 13.695312 26.972656 L 4.730469 26.128906 L 4.730469 14.65625 L 13.695312 15.5 Z M 13.695312 26.972656 " fill-opacity="1" fill-rule="nonzero"/></g><g clip-path="url(#7900486e3d)"><path fill="#b61c1c" d="M 30.972656 20.316406 L 22.007812 19.472656 L 22.007812 8 L 30.972656 8.84375 Z M 30.972656 20.316406 " fill-opacity="1" fill-rule="nonzero"/></g><g clip-path="url(#f869fc3fbf)"><path fill="#d22f2f" d="M 30.972656 20.316406 L 4.730469 26.128906 L 4.730469 14.65625 L 30.972656 8.84375 Z M 30.972656 20.316406 " fill-opacity="1" fill-rule="nonzero"/></g><path fill="#ffffff" d="M 9.664062 22.914062 C 8.023438 23.316406 6.851562 22.570312 6.8125 21.207031 C 6.808594 21.105469 6.886719 21.015625 6.984375 20.992188 L 8.195312 20.722656 C 8.324219 20.695312 8.4375 20.777344 8.460938 20.90625 C 8.792969 22.875 12.339844 20.175781 9.082031 19.96875 C 8.175781 19.847656 7.039062 19.691406 7.042969 18.378906 C 7.058594 15.375 12.105469 14.484375 12.066406 17.390625 C 12.066406 17.496094 11.996094 17.589844 11.894531 17.613281 L 10.722656 17.859375 C 10.597656 17.886719 10.472656 17.800781 10.460938 17.671875 C 10.371094 16.609375 8.53125 17.109375 8.640625 18.027344 C 8.75 18.910156 12.066406 17.945312 12.050781 20.265625 C 12.058594 20.625 11.996094 22.339844 9.664062 22.914062 Z M 9.664062 22.914062 " fill-opacity="1" fill-rule="nonzero"/><path fill="#ffffff" d="M 16.222656 21.164062 L 15.894531 20.050781 L 14.1875 20.429688 L 13.832031 21.78125 C 13.8125 21.859375 13.75 21.925781 13.667969 21.941406 L 12.421875 22.21875 C 12.257812 22.257812 12.117188 22.101562 12.167969 21.9375 L 14.308594 14.859375 C 14.332031 14.785156 14.398438 14.726562 14.472656 14.710938 L 15.589844 14.464844 C 15.699219 14.441406 15.808594 14.5 15.839844 14.605469 L 17.9375 20.738281 C 17.984375 20.867188 17.90625 21 17.78125 21.027344 L 16.480469 21.3125 C 16.363281 21.339844 16.253906 21.273438 16.222656 21.164062 Z M 15.488281 18.671875 L 15.050781 17.183594 L 14.605469 18.863281 Z M 15.488281 18.671875 " fill-opacity="1" fill-rule="nonzero"/><path fill="#ffffff" d="M 18.265625 20.644531 L 18.265625 14.042969 C 18.265625 13.9375 18.339844 13.851562 18.4375 13.828125 L 19.652344 13.558594 C 19.785156 13.53125 19.917969 13.636719 19.917969 13.773438 L 19.917969 19.140625 L 22.753906 18.511719 C 22.890625 18.484375 23.023438 18.589844 23.023438 18.726562 L 23.023438 19.691406 C 23.023438 19.796875 22.953125 19.886719 22.855469 19.90625 L 18.535156 20.859375 C 18.398438 20.894531 18.265625 20.789062 18.265625 20.644531 Z M 18.265625 20.644531 " fill-opacity="1" fill-rule="nonzero"/><path fill="#ffffff" d="M 23.84375 19.410156 L 23.84375 12.808594 C 23.84375 12.703125 23.914062 12.617188 24.011719 12.59375 L 28.398438 11.621094 C 28.535156 11.59375 28.664062 11.699219 28.664062 11.839844 L 28.664062 12.808594 C 28.664062 12.914062 28.59375 13 28.496094 13.023438 L 25.5 13.6875 L 25.5 15 L 27.953125 14.453125 C 28.089844 14.425781 28.222656 14.53125 28.222656 14.667969 L 28.222656 15.609375 C 28.222656 15.714844 28.152344 15.804688 28.054688 15.824219 L 25.503906 16.386719 L 25.503906 17.898438 L 28.417969 17.253906 C 28.554688 17.226562 28.6875 17.332031 28.6875 17.46875 L 28.6875 18.433594 C 28.6875 18.539062 28.617188 18.628906 28.519531 18.648438 L 24.121094 19.621094 C 23.976562 19.660156 23.84375 19.554688 23.84375 19.410156 Z M 23.84375 19.410156 " fill-opacity="1" fill-rule="nonzero"/></svg>